<?xml version="1.0" encoding="UTF-8"?>
<svg width="123px" height="209px" viewBox="0 0 123 209" version="1.1" xmlns="http://www.w3.org/2000/svg" xmlns:xlink="http://www.w3.org/1999/xlink">
    <!-- Generator: Sketch 43.2 (39069) - http://www.bohemiancoding.com/sketch -->
    <title>Group 2</title>
    <desc>Created with Sketch.</desc>
    <defs></defs>
    <g id="Page-1" stroke="none" stroke-width="1" fill="none" fill-rule="evenodd">
        <g id="Artboard" transform="translate(-1501.000000, -852.000000)">
            <g id="Group-2" transform="translate(1501.000000, 852.000000)">
                <path d="M63,0.10302858 C66.4233605,0.587161626 69,2.77030443 69,6.5 C69,9.04689431 67.7984863,10.872615 65.946315,11.9286154 C73.2535922,52.8884845 93.7519356,89.3286109 122.930596,116.773487 C105.84758,142.834161 95.0151548,173.299224 92.5420896,206.07638 C82.7108473,207.990468 72.4901601,209 62,209 C51.1482336,209 40.5848383,207.919669 30.4426254,205.875218 C27.9404917,173.174576 17.1174671,142.78084 0.0694041973,116.773487 C29.2480644,89.3286109 49.7464078,52.8884845 57.0536854,11.928617 C55.2015137,10.872615 54,9.04689431 54,6.5 C54,2.77030443 56.5766395,0.587161626 60,0.10302858 L60,112 L63,112 L63,0.10302858 Z" id="Combined-Shape" fill="#333333"></path>
                <g id="Group" transform="translate(32.000000, 102.000000)">
                    <circle id="Oval-4" cx="30" cy="30" r="30"></circle>
                    <path d="M47.6875409,33.7095973 C47.6875409,33.7095973 37.4341347,40.9762908 30.6960244,41.0731947 C23.9579141,41.1700985 24.6422103,36.8335145 24.6422103,36.8335145 C24.6422103,36.8335145 49.3486147,28.4428459 42.6105044,11.8755728 C39.5808381,7.6128985 36.0655423,6.27157407 31.0878391,6.36847792 C26.1046175,6.46538177 19.929396,9.4803506 15.9229521,18.393862 C14.0080264,22.6455869 13.3126931,26.6794148 12.9208783,29.7332547 C12.9208783,29.7332547 8.59987885,30.6092217 6.25450879,28.6716922 C3.90913869,26.7341628 2.7061018,28.6716922 2.7061018,28.6716922 C2.7061018,28.6716922 -1.32241624,33.7599654 2.68402773,35.3104269 C6.69047167,36.860341 12.9374339,37.5852037 12.9374339,37.5852037 C13.5058412,40.2979639 15.1779521,44.9055502 20.0563219,48.5796842 C27.3793951,54.1021085 41.4405786,48.0721708 41.4405786,48.0721708 C41.4405786,48.0721708 44.505382,46.9186214 47.2019113,44.8628468 C51.1276035,41.4438278 50.5757517,31.04172 47.6875409,33.7095973 Z M23.6363636,29.0363429 C23.9251073,17.658035 31.4433394,12.6855973 34.0474807,15.1720863 C36.6516219,17.658035 35.6873269,23.0124693 30.7677881,26.3591258 C25.8536973,29.7052419 23.6363636,29.0363429 23.6363636,29.0363429 L23.6363636,29.0363429 Z" id="ember-e-copy-2" fill="#FFFFFF" fill-rule="nonzero"></path>
                </g>
            </g>
        </g>
    </g>
</svg>